<mxfile host="app.diagrams.net" modified="2020-04-04T06:17:29.548Z" agent="5.0 (Windows NT 10.0; Win64; x64) AppleWebKit/537.36 (KHTML, like Gecko) Chrome/81.0.4044.34 Safari/537.36" etag="drOjlLhChG2znUbC9lv8" version="12.9.7" type="github">
  <diagram id="KuVEHBZzb6fRUUAdWKEH" name="第 1 页">
    <mxGraphModel dx="504" dy="577" grid="1" gridSize="10" guides="1" tooltips="1" connect="1" arrows="1" fold="1" page="1" pageScale="1" pageWidth="827" pageHeight="1169" math="0" shadow="0">
      <root>
        <mxCell id="0" />
        <mxCell id="1" parent="0" />
        <mxCell id="PPJKNxolKEn9gvUuVxtf-8" style="edgeStyle=orthogonalEdgeStyle;rounded=0;orthogonalLoop=1;jettySize=auto;html=1;exitX=0.5;exitY=1;exitDx=0;exitDy=0;" edge="1" parent="1" source="PPJKNxolKEn9gvUuVxtf-2" target="PPJKNxolKEn9gvUuVxtf-3">
          <mxGeometry relative="1" as="geometry" />
        </mxCell>
        <mxCell id="PPJKNxolKEn9gvUuVxtf-2" value="在WS1中配置Nginx" style="ellipse;whiteSpace=wrap;html=1;aspect=fixed;" vertex="1" parent="1">
          <mxGeometry x="300" y="80" width="80" height="80" as="geometry" />
        </mxCell>
        <mxCell id="PPJKNxolKEn9gvUuVxtf-3" value="安装配置Nginx" style="rounded=1;whiteSpace=wrap;html=1;" vertex="1" parent="1">
          <mxGeometry x="280" y="180" width="120" height="60" as="geometry" />
        </mxCell>
        <mxCell id="PPJKNxolKEn9gvUuVxtf-10" style="edgeStyle=orthogonalEdgeStyle;rounded=0;orthogonalLoop=1;jettySize=auto;html=1;exitX=0.5;exitY=1;exitDx=0;exitDy=0;entryX=0.5;entryY=0;entryDx=0;entryDy=0;" edge="1" parent="1" target="PPJKNxolKEn9gvUuVxtf-5">
          <mxGeometry relative="1" as="geometry">
            <mxPoint x="340" y="240" as="sourcePoint" />
          </mxGeometry>
        </mxCell>
        <mxCell id="PPJKNxolKEn9gvUuVxtf-11" style="edgeStyle=orthogonalEdgeStyle;rounded=0;orthogonalLoop=1;jettySize=auto;html=1;exitX=0.5;exitY=1;exitDx=0;exitDy=0;" edge="1" parent="1" source="PPJKNxolKEn9gvUuVxtf-5" target="PPJKNxolKEn9gvUuVxtf-6">
          <mxGeometry relative="1" as="geometry" />
        </mxCell>
        <mxCell id="PPJKNxolKEn9gvUuVxtf-5" value="安装配置PHP" style="rounded=1;whiteSpace=wrap;html=1;" vertex="1" parent="1">
          <mxGeometry x="280" y="260" width="120" height="60" as="geometry" />
        </mxCell>
        <mxCell id="PPJKNxolKEn9gvUuVxtf-12" style="edgeStyle=orthogonalEdgeStyle;rounded=0;orthogonalLoop=1;jettySize=auto;html=1;entryX=0.5;entryY=0;entryDx=0;entryDy=0;" edge="1" parent="1" source="PPJKNxolKEn9gvUuVxtf-6" target="PPJKNxolKEn9gvUuVxtf-7">
          <mxGeometry relative="1" as="geometry" />
        </mxCell>
        <mxCell id="PPJKNxolKEn9gvUuVxtf-6" value="一个简单的PHP页面" style="rounded=1;whiteSpace=wrap;html=1;" vertex="1" parent="1">
          <mxGeometry x="280" y="340" width="120" height="60" as="geometry" />
        </mxCell>
        <mxCell id="PPJKNxolKEn9gvUuVxtf-7" value="结束" style="ellipse;whiteSpace=wrap;html=1;aspect=fixed;" vertex="1" parent="1">
          <mxGeometry x="300" y="424.5" width="80" height="80" as="geometry" />
        </mxCell>
      </root>
    </mxGraphModel>
  </diagram>
</mxfile>
